<svg id="Capa_1" enable-background="new 0 0 512 512" height="512" viewBox="0 0 512 512" width="512" xmlns="http://www.w3.org/2000/svg"><g><path d="m256 0c-75.806 0-143.888 32.976-190.762 85.333l30.262 8.667 44.64-8.667c24.088-16.374 51.747-27.887 81.64-32.897 4.963-.832 9.446 3.153 9.446 8.185v24.712l24.774 12.167 24.774-12.167v-24.712c0-5.032 4.483-9.017 9.446-8.185 29.893 5.01 57.552 16.523 81.64 32.897l55.64 10.667 19.262-10.667c-46.874-52.357-114.956-85.333-190.762-85.333z" fill="#e5646e"/><g fill="#ffa95f"><path d="m68.182 170.667c15.778-34.644 40.77-64.133 71.957-85.333h-74.901c-22.044 24.622-36.662 61.201-47.905 93z"/><path d="m280.774 85.333h-49.548v85.334l25.107 19 24.441-19z"/><path d="m446.762 85.333h-74.902c31.188 21.201 56.179 50.69 71.957 85.333l31.849 15.667 21.709-15.667c-11.242-31.798-28.569-60.71-50.613-85.333z"/></g><path d="m65.238 85.333c-22.044 24.622-39.371 53.534-50.613 85.333l4.542 4 6.783-4c8.707-31.258 20.24-60.119 39.288-85.333z" fill="#ff8b5a"/><path d="m497.376 170.667h-53.558c11.854 26.03 18.634 54.86 18.634 85.334l23.882 14.666 25.666-14.667c0-29.929-5.185-58.636-14.624-85.333z" fill="#ffd064"/><path d="m280.774 170.667h-49.548v59.972c0 4.38-1.74 8.581-4.837 11.679l-13.683 13.682 43.294 13.5 43.294-13.5-13.683-13.683c-3.097-3.097-4.837-7.298-4.837-11.679z" fill="#ffd064"/><path d="m68.182 170.667h-42.232c-11.7 16.833-21.783 62.404-21.783 92.333l45.382-7c-.001-30.473 6.779-59.304 18.633-85.333z" fill="#ffd064"/><path d="m16.516 239.484c0-23.851 3.332-46.912 9.433-68.817h-11.324v.001c-9.44 26.696-14.625 55.403-14.625 85.332l8.75 6 8.353-6c-.348-5.466-.587-10.962-.587-16.516z" fill="#ffc250"/><path d="m443.882 341.333 20.118 14.167 33.376-14.167c9.439-26.697 14.624-55.403 14.624-85.333h-49.548c0 30.461-6.722 59.309-18.57 85.333z" fill="#b3e59f"/><path d="m68.118 341.333c-11.848-26.024-18.57-54.872-18.57-85.333h-32.445c-10.436 23-15.566 76.5 21.397 98.5z" fill="#b3e59f"/><path d="m280.774 341.333v-33.781l33.781 33.781 38.945 15.167 31.128-15.167-85.334-85.333h-86.588l-85.334 85.333 25.628 10.167 44.445-10.167 33.781-33.781v33.781l23.774 10.167z" fill="#b3e59f"/><path d="m17.103 256h-17.103c0 29.929 5.185 58.636 14.624 85.333l12.709 6.667 10.297-6.667c-11.476-26.429-18.604-55.168-20.527-85.333z" fill="#95d6a4"/><path d="m97.5 441.75 42.547-15.083c-2.874-1.956-5.716-3.956-8.502-6.025-4.051-3.009-4.479-8.93-.91-12.498l66.81-66.81h-70.072l-30.413 30.413c-3.634 3.634-9.786 3.182-12.63-1.099-6.16-9.27-11.555-19.089-16.211-29.315h-30.489l-8.63 15.917c11.242 31.799 45.75 79 68.5 84.5z" fill="#a4ccff"/><path d="m280.774 341.333h-49.548v85.334l24.774 10.833 24.774-10.833z" fill="#a4ccff"/><path d="m446.763 426.667c22.043-24.622 39.37-53.534 50.613-85.333v-.001h-53.493c-4.655 10.226-10.051 20.045-16.211 29.315-2.845 4.28-8.996 4.733-12.63 1.099l-30.413-30.413h-70.072l66.81 66.81c3.569 3.569 3.141 9.489-.91 12.498-2.786 2.07-5.628 4.07-8.502 6.025l23.545 11.833z" fill="#a4ccff"/><path d="m37.63 341.333h-23.006c11.242 31.799 28.57 60.711 50.613 85.333l19.429 4 13.295-4c-25.55-23.837-46.215-52.824-60.331-85.333z" fill="#8bb3ea"/><path d="m256 506c74.534 0 141.6-25.878 188.384-76.714.798-.868 1.591-1.741 2.378-2.619h-74.902c-24.088 16.374-51.747 27.887-81.64 32.897-4.963.832-9.446-3.153-9.446-8.185v-24.712h-49.548v24.712c0 5.032-4.483 9.017-9.446 8.185-29.893-5.01-57.552-16.523-81.64-32.897h-42.179c10.206 35.5 82.233 79.333 158.039 79.333z" fill="#c3aff0"/><path d="m272.516 495.484c-67.48 0-128.822-26.151-174.555-68.818h-32.723c46.874 52.358 114.956 85.334 190.762 85.334 74.516 0 141.602-31.899 188.384-82.714-45.423 41.14-105.756 66.198-171.868 66.198z" fill="#aa96e6"/></g></svg>